<?xml version="1.0" standalone="no"?>
<!DOCTYPE svg PUBLIC "-//W3C//DTD SVG 20010904//EN"
 "http://www.w3.org/TR/2001/REC-SVG-20010904/DTD/svg10.dtd">
<svg version="1.0" xmlns="http://www.w3.org/2000/svg"
 width="4200.000000pt" height="3100.000000pt" viewBox="0 0 4200.000000 3100.000000"
 preserveAspectRatio="xMidYMid meet">

<g transform="translate(0.000000,3100.000000) scale(0.100000,-0.100000)"
fill="#000000" stroke="none">
<path d="M6004 23127 c-12 -6 -44 -27 -71 -45 -44 -31 -59 -48 -100 -117 -7
-11 -13 -55 -13 -100 0 -45 -9 -115 -20 -160 -11 -44 -20 -90 -20 -101 0 -12
-7 -38 -15 -57 -11 -26 -18 -103 -24 -269 -8 -184 -15 -259 -35 -358 -23 -111
-27 -162 -36 -465 -12 -419 -12 -1879 0 -2145 7 -159 13 -214 35 -299 19 -76
25 -120 22 -160 -5 -60 -30 -171 -48 -217 -20 -52 -29 -251 -38 -809 -6 -374
-13 -560 -21 -580 -6 -16 -15 -57 -20 -90 -5 -33 -16 -85 -24 -115 -21 -71
-21 -180 0 -228 15 -34 23 -67 53 -232 12 -65 31 -949 25 -1135 -3 -71 -9
-355 -14 -630 -7 -411 -11 -509 -24 -549 -9 -27 -16 -63 -16 -79 0 -17 -10
-51 -22 -76 l-23 -46 0 -925 c0 -900 1 -930 23 -1110 26 -215 28 -229 49 -294
20 -63 104 -150 159 -164 137 -35 208 -41 244 -22 11 6 31 31 46 55 14 25 30
45 34 45 5 0 29 32 55 72 43 64 49 81 62 166 8 54 23 112 36 136 l22 41 1 790
c1 1246 13 1592 57 1680 18 35 22 70 30 280 10 268 3 611 -13 696 -8 45 -7 76
10 172 28 167 36 710 22 1627 -14 930 -19 4140 -6 4400 5 107 7 431 4 720 l-5
525 -24 40 c-36 59 -60 83 -117 116 -46 26 -61 29 -135 29 -48 0 -93 -6 -105
-13z"/>
<path d="M8807 22223 c-12 -3 -17 -12 -15 -26 5 -35 -39 -50 -111 -37 -81 15
-132 -7 -129 -55 3 -34 -23 -94 -42 -100 -37 -12 -48 -45 -38 -110 5 -33 7
-77 5 -99 -6 -43 10 -89 29 -82 14 5 34 -13 34 -32 0 -17 24 -38 58 -52 12 -5
22 -18 22 -29 0 -36 34 -43 184 -41 77 1 171 -2 209 -8 52 -8 79 -7 120 4 37
10 118 14 289 14 224 0 239 -1 275 -22 54 -30 64 -45 57 -88 -4 -23 -2 -40 5
-44 6 -4 11 -21 11 -37 0 -30 -20 -55 -74 -92 -15 -11 -31 -30 -36 -43 -5 -13
-16 -24 -23 -24 -18 0 -53 -39 -62 -67 -3 -13 -14 -23 -25 -23 -18 0 -70 -53
-70 -71 0 -5 -5 -9 -12 -9 -19 0 -68 -52 -68 -72 0 -10 -4 -18 -9 -18 -14 0
-56 -41 -70 -67 -6 -13 -18 -23 -25 -23 -8 0 -32 -18 -55 -40 -22 -22 -45 -40
-49 -40 -13 0 -49 -43 -56 -66 -4 -12 -18 -26 -31 -32 -14 -7 -35 -28 -46 -47
-12 -19 -27 -35 -34 -35 -17 0 -65 -57 -65 -76 0 -8 -6 -14 -13 -14 -15 0 -67
-51 -67 -66 -1 -5 -15 -18 -33 -29 -17 -11 -38 -33 -45 -48 -8 -16 -23 -32
-35 -37 -12 -4 -31 -17 -42 -29 -11 -12 -24 -26 -30 -32 -5 -5 -25 -19 -43
-30 -18 -10 -36 -27 -39 -37 -4 -9 -24 -32 -45 -50 -21 -19 -38 -41 -38 -50
-1 -9 -15 -26 -33 -37 -17 -11 -38 -33 -45 -48 -7 -15 -18 -27 -24 -27 -17 0
-68 -51 -68 -67 0 -7 -6 -13 -14 -13 -8 0 -28 -11 -44 -25 -22 -18 -28 -31
-25 -50 11 -52 -5 -92 -45 -113 l-37 -19 0 -68 c0 -69 19 -115 48 -115 7 0 24
-15 39 -34 15 -19 38 -36 50 -38 16 -2 24 -11 28 -33 3 -19 17 -37 40 -53 19
-13 42 -38 50 -57 14 -33 15 -33 76 -32 62 0 94 -12 94 -38 0 -26 35 -45 73
-38 50 8 97 -12 97 -42 0 -36 38 -55 91 -44 50 9 215 1 241 -13 10 -5 17 -18
15 -31 -2 -20 4 -23 68 -33 39 -5 77 -13 85 -16 39 -14 171 -28 276 -28 79 0
142 -6 198 -19 69 -16 137 -20 461 -25 209 -3 390 -3 403 0 12 4 25 17 28 30
3 13 10 24 14 24 18 0 70 53 70 71 0 10 6 19 13 19 18 0 62 40 71 64 5 15 9
16 21 6 9 -7 19 -10 23 -6 12 12 14 209 2 226 -9 13 -12 13 -24 -2 -15 -20
-57 -23 -86 -8 -11 6 -26 25 -35 44 -9 18 -27 38 -41 44 -13 7 -28 22 -33 35
-5 13 -25 31 -45 41 -19 9 -41 29 -48 44 l-13 27 -590 5 c-608 5 -646 8 -631
45 2 7 -1 25 -7 40 -11 23 -16 25 -49 19 -49 -8 -109 12 -101 33 7 19 -13 33
-50 33 -40 0 -67 17 -67 43 1 24 36 69 69 86 11 7 21 18 21 25 0 8 8 17 17 20
12 5 14 9 5 18 -30 30 -8 71 51 96 16 7 27 19 27 31 0 20 38 56 70 66 10 3 20
16 22 28 2 14 17 28 40 39 21 10 43 29 50 42 7 14 29 35 48 48 19 13 36 34 38
46 2 14 18 30 43 42 25 13 41 29 45 46 4 17 19 31 41 40 23 10 38 25 45 45 7
19 22 35 44 44 19 8 38 25 43 38 5 13 25 33 45 45 19 11 42 34 50 51 9 16 25
33 36 36 12 4 32 24 45 45 13 21 34 41 45 45 11 4 28 23 38 43 9 19 31 43 47
52 17 9 32 25 34 36 4 27 29 52 54 56 11 2 28 16 37 32 9 17 29 37 45 46 16 9
36 29 45 45 9 16 29 36 46 45 16 9 34 27 40 39 6 12 26 30 45 39 18 9 40 30
49 46 8 16 19 28 24 26 16 -4 67 53 56 64 -28 28 4 134 36 122 26 -10 34 33
34 183 l0 149 -37 19 c-26 12 -37 25 -38 41 -2 25 -20 42 -46 42 -22 0 -39 20
-39 46 0 30 -16 34 -124 34 -95 0 -136 14 -136 46 0 37 -21 51 -71 46 -58 -5
-109 19 -89 43 27 32 -21 35 -622 34 -326 -1 -601 -3 -611 -6z"/>
<path d="M13331 22219 c-19 -7 -21 -12 -11 -23 9 -12 6 -18 -18 -30 -21 -11
-81 -17 -221 -22 -105 -4 -194 -11 -197 -16 -3 -5 -1 -15 6 -23 12 -14 8 -17
-55 -51 -11 -6 -22 -21 -25 -34 -3 -13 -20 -29 -40 -39 -19 -9 -40 -26 -46
-39 -6 -13 -27 -31 -45 -40 -19 -9 -40 -30 -47 -45 -8 -16 -21 -31 -30 -34
-28 -10 -52 -35 -52 -54 0 -11 -17 -29 -39 -43 -22 -14 -41 -36 -45 -50 -4
-17 -20 -32 -43 -44 -24 -11 -39 -26 -43 -42 -4 -16 -19 -31 -43 -43 -21 -10
-42 -29 -47 -42 -5 -14 -21 -30 -34 -35 -14 -5 -37 -27 -51 -50 -14 -22 -30
-40 -37 -40 -29 0 -45 -31 -40 -75 5 -51 -14 -90 -54 -105 -13 -5 -27 -18 -30
-27 -11 -36 -22 -48 -55 -64 -32 -16 -33 -18 -34 -78 -1 -44 -6 -66 -18 -79
-15 -15 -19 -15 -27 -2 -7 11 -12 12 -21 3 -14 -14 -25 -810 -12 -883 7 -35
13 -45 28 -45 18 0 20 -8 23 -90 2 -60 7 -93 16 -100 7 -5 18 -20 25 -33 7
-14 18 -21 27 -18 21 8 36 -30 29 -75 -6 -33 -3 -43 17 -64 12 -14 31 -25 41
-25 9 0 17 -6 17 -14 0 -20 49 -76 66 -76 7 0 19 -10 25 -22 14 -27 35 -45 67
-58 12 -5 22 -18 22 -28 0 -20 34 -55 63 -65 9 -4 17 -13 17 -20 0 -8 20 -32
45 -55 25 -22 45 -45 45 -51 0 -6 20 -22 45 -37 25 -14 45 -31 45 -38 0 -13
38 -51 57 -57 6 -2 22 -20 35 -39 13 -19 36 -41 51 -48 15 -7 27 -17 27 -22 0
-14 53 -60 68 -60 7 0 17 -13 23 -28 6 -17 26 -38 48 -50 30 -17 38 -27 34
-42 -3 -11 -4 -20 -2 -21 2 0 58 -5 124 -10 280 -21 325 -28 325 -54 0 -20
103 -28 320 -24 167 4 193 6 204 21 18 24 60 38 117 38 27 0 57 4 67 9 9 5 35
13 57 18 30 6 40 13 40 27 0 22 26 34 77 35 45 1 98 30 98 54 0 10 12 22 28
27 15 6 41 27 58 47 29 34 36 36 92 37 34 1 63 4 65 6 2 3 10 20 18 37 9 18
31 43 50 56 19 12 35 33 37 45 2 13 13 24 27 28 28 7 52 31 57 59 2 11 13 25
26 31 31 15 62 45 62 60 0 6 15 21 34 32 19 11 42 34 51 51 8 17 21 31 28 31
20 0 67 49 67 71 0 11 7 22 15 25 18 7 21 70 3 76 -6 2 -17 19 -23 38 -7 20
-23 40 -43 50 -43 24 -63 41 -57 50 8 12 -24 40 -44 40 -24 0 -47 28 -43 51 4
24 -25 31 -108 27 -59 -3 -65 -5 -68 -26 -2 -13 -17 -31 -35 -42 -43 -26 -58
-40 -52 -49 11 -20 -38 -45 -95 -49 -61 -4 -75 -13 -82 -47 -2 -11 -21 -29
-43 -41 -22 -12 -39 -26 -38 -32 5 -24 -49 -52 -101 -52 -54 0 -76 -12 -76
-41 0 -29 -31 -44 -99 -49 -60 -5 -67 -8 -79 -32 -24 -52 -33 -53 -389 -56
-205 -2 -339 1 -350 7 -10 5 -27 27 -38 48 -20 37 -22 38 -67 35 -65 -5 -88 5
-104 44 -9 22 -28 41 -54 54 -26 13 -40 27 -40 40 0 13 -13 26 -37 37 -49 23
-65 56 -59 115 5 46 -4 60 -40 63 -30 2 -44 28 -44 87 0 32 -5 91 -11 129 -13
88 -8 109 33 133 27 16 56 21 163 23 157 4 175 8 175 32 0 28 42 39 185 46
148 8 184 17 165 40 -7 9 -11 17 -9 18 2 1 12 9 21 16 11 8 63 14 155 17 171
5 187 9 180 35 -9 34 28 49 123 50 47 1 117 4 155 8 62 5 70 8 73 28 2 12 13
25 25 29 29 9 57 34 68 61 4 12 20 27 36 35 15 7 34 26 41 41 8 16 23 32 35
36 25 10 51 37 60 64 4 9 17 21 31 27 26 9 58 48 51 60 -5 9 17 29 48 45 12 6
23 19 25 30 5 27 31 55 52 55 24 0 56 25 42 34 -14 9 -16 85 -3 106 6 8 22 14
38 15 l28 0 5 210 c3 116 1 216 -4 223 -4 6 -17 12 -27 12 -13 0 -26 15 -40
44 -13 29 -29 46 -45 50 -13 4 -24 12 -24 20 0 22 -39 64 -63 68 -12 2 -23 11
-25 23 -5 26 -30 53 -64 71 -16 8 -28 20 -28 28 0 15 -37 50 -62 59 -9 3 -18
16 -20 28 -2 14 -17 30 -41 42 -21 11 -42 30 -47 42 -11 28 -29 35 -88 35 -56
0 -95 18 -100 45 -7 36 -23 45 -79 45 -68 0 -96 14 -87 42 4 13 1 24 -7 29
-19 12 -498 10 -528 -2z m404 -669 c10 -11 28 -20 40 -20 23 0 93 -50 108 -76
4 -8 14 -14 22 -14 7 0 17 -9 20 -20 3 -11 13 -20 21 -20 8 0 19 -11 24 -25 5
-14 14 -25 19 -25 5 0 18 -18 29 -40 17 -36 18 -44 6 -78 -7 -20 -13 -46 -14
-56 0 -10 -20 -38 -45 -62 -25 -23 -45 -47 -45 -53 0 -6 -6 -11 -13 -11 -8 0
-22 -9 -32 -20 -10 -11 -28 -20 -40 -20 -12 0 -33 -8 -46 -19 -13 -10 -48 -21
-78 -25 -30 -4 -66 -13 -80 -20 -14 -7 -60 -16 -101 -19 -41 -3 -113 -15 -160
-25 -49 -12 -144 -23 -225 -27 -77 -3 -185 -13 -239 -21 -149 -21 -210 -19
-237 9 -18 19 -20 30 -15 80 3 31 14 74 25 95 10 20 22 53 26 72 4 19 16 46
26 59 11 13 19 30 19 37 0 7 9 15 19 19 10 3 21 15 24 25 3 11 12 20 20 20 9
0 19 9 22 20 3 11 11 20 17 20 5 0 23 11 40 25 16 14 35 25 42 25 6 0 19 9 29
20 9 11 25 20 35 20 11 0 27 9 37 20 10 11 28 20 40 20 12 0 33 8 46 19 13 10
41 21 61 25 21 4 41 13 46 21 4 8 30 18 57 21 28 4 61 15 74 26 21 16 44 18
191 18 154 0 168 -2 185 -20z"/>
<path d="M16646 22131 c-3 -5 -4 -16 -1 -23 7 -18 -21 -43 -57 -52 -18 -4 -28
-13 -28 -25 0 -22 -30 -51 -54 -51 -10 0 -23 -14 -31 -34 -9 -22 -25 -37 -44
-44 -28 -10 -29 -13 -33 -79 -5 -75 9 -113 41 -113 40 0 45 -45 46 -390 0
-298 -2 -328 -18 -354 -14 -21 -21 -25 -32 -16 -10 8 -15 8 -21 -1 -4 -6 -9
-233 -11 -503 -5 -529 -5 -526 -59 -546 l-24 -10 0 -218 c0 -249 6 -316 27
-308 21 8 36 -40 35 -116 -1 -38 3 -68 8 -68 5 0 12 -21 16 -46 6 -42 8 -45
30 -40 23 6 24 4 24 -39 0 -27 5 -45 11 -45 7 0 21 -11 33 -23 19 -20 35 -25
103 -29 99 -7 148 1 148 25 0 10 15 26 32 37 18 10 39 33 48 50 8 16 22 30 29
30 8 0 26 15 40 33 29 35 35 42 67 72 12 11 25 31 30 44 6 16 14 21 26 17 9
-4 20 -1 25 6 13 22 9 446 -7 609 -13 135 -13 161 0 209 11 42 15 122 15 338
0 242 2 283 15 288 18 7 19 47 4 106 -14 56 1 101 32 96 13 -2 26 5 33 17 6
11 17 25 25 31 13 10 13 20 2 65 -19 80 -3 131 51 161 23 13 46 32 52 42 6 11
26 33 44 49 17 16 32 38 32 48 0 10 11 26 25 35 23 15 50 16 256 10 167 -6
243 -4 277 4 39 10 53 10 85 -3 24 -11 37 -22 37 -35 0 -30 37 -57 75 -53 34
2 74 -12 87 -33 4 -6 8 -36 8 -67 0 -51 3 -59 28 -75 15 -10 33 -17 40 -16 27
6 41 -60 35 -161 -4 -62 -2 -106 5 -120 6 -13 13 -125 16 -272 3 -168 10 -273
20 -319 12 -53 15 -144 16 -420 0 -193 3 -367 8 -386 6 -28 15 -39 50 -55 23
-11 42 -24 42 -29 0 -14 52 -66 66 -66 6 0 14 -10 18 -23 3 -13 23 -33 46 -46
22 -12 40 -30 40 -39 0 -16 50 -52 71 -52 13 0 59 42 59 54 0 6 18 22 40 35
21 13 41 35 45 48 3 12 10 23 15 23 13 0 60 52 60 68 0 7 8 16 18 19 34 13 72
47 72 65 0 11 11 23 25 28 14 5 25 11 26 12 5 18 9 571 4 596 -4 22 -14 36
-31 42 -13 5 -24 15 -25 22 0 7 -5 49 -10 93 -6 44 -13 148 -17 230 -7 154
-12 178 -37 169 -33 -13 -40 35 -40 258 0 120 -2 218 -5 218 -3 0 -10 10 -15
23 -6 12 -17 21 -26 19 -29 -4 -43 50 -36 142 5 72 3 85 -13 98 -10 9 -26 18
-37 20 -10 2 -19 13 -21 25 -2 13 -19 29 -46 44 -27 14 -47 33 -54 51 -7 18
-23 34 -41 41 -17 6 -34 21 -37 32 -8 26 -44 65 -60 65 -7 0 -19 12 -26 27 -7
15 -29 38 -48 51 -19 13 -38 32 -42 42 -4 11 -25 28 -48 40 -26 13 -40 27 -40
40 0 31 -32 40 -138 40 -83 0 -102 3 -115 18 -10 10 -14 22 -11 25 4 4 1 13
-6 22 -11 13 -58 15 -339 15 -179 0 -336 -3 -349 -6 -14 -4 -22 -13 -20 -24 2
-9 -3 -24 -11 -33 -18 -22 -87 -22 -108 -1 -17 17 -76 12 -100 -8 -6 -5 -31
-8 -55 -6 -38 3 -45 7 -63 41 -11 21 -35 46 -52 57 -18 11 -33 28 -33 38 0 12
-15 25 -42 38 -29 13 -44 27 -48 44 -6 24 -10 25 -87 28 -45 1 -84 -1 -87 -7z"/>
<path d="M14820 17786 c-11 -5 -20 -17 -20 -27 0 -11 -14 -25 -37 -35 -22 -11
-40 -29 -47 -46 -6 -16 -16 -26 -23 -24 -7 3 -17 -3 -23 -13 -6 -12 -10 -363
-12 -956 l-3 -937 -22 -17 c-30 -25 -274 -29 -310 -6 -13 9 -20 21 -17 30 4 8
-1 17 -10 21 -9 3 -16 12 -16 19 0 10 -52 13 -246 14 -136 0 -252 -3 -258 -7
-6 -4 -36 -11 -66 -17 -41 -7 -55 -14 -55 -27 0 -28 -14 -33 -83 -33 -53 0
-67 -3 -68 -15 0 -8 -5 -27 -12 -42 -9 -21 -20 -28 -56 -33 -24 -4 -49 -4 -55
-1 -18 11 -48 -12 -59 -44 -12 -34 -44 -50 -101 -50 -37 0 -71 -23 -71 -48 0
-7 -19 -23 -41 -38 -23 -14 -44 -34 -46 -45 -3 -10 -15 -21 -27 -25 -29 -9
-56 -34 -67 -61 -5 -13 -14 -23 -21 -23 -7 0 -46 -35 -86 -78 -86 -90 -85 -89
-123 -125 -16 -15 -29 -34 -29 -41 0 -14 -44 -31 -67 -27 -9 1 -12 -17 -10
-68 2 -80 -12 -104 -62 -104 -31 0 -41 -16 -41 -64 0 -15 -5 -21 -14 -17 -8 3
-17 1 -20 -5 -12 -19 -16 -164 -16 -534 0 -251 -4 -374 -11 -386 -9 -14 -7
-23 13 -44 14 -15 32 -27 40 -27 21 0 38 -43 38 -94 0 -43 21 -76 49 -76 18 0
44 -69 37 -101 -5 -28 11 -50 47 -62 9 -4 21 -17 26 -29 12 -31 48 -68 66 -68
8 0 15 -8 15 -18 0 -20 45 -72 63 -72 7 0 19 -15 27 -33 8 -18 29 -39 47 -47
17 -8 36 -25 42 -38 6 -12 27 -32 46 -43 19 -12 35 -27 35 -35 0 -8 8 -23 17
-34 14 -17 25 -19 68 -14 63 8 96 -14 97 -64 l1 -32 73 0 c69 0 98 -10 73 -26
-9 -5 -7 -11 6 -21 13 -9 52 -13 128 -13 59 0 117 -5 127 -10 11 -6 75 -13
143 -17 104 -5 129 -3 157 11 20 10 58 16 96 16 34 0 75 5 91 11 26 10 27 12
10 23 -15 12 -16 15 -2 26 11 9 39 11 109 6 77 -6 95 -4 106 9 30 36 170 4
179 -41 8 -44 27 -49 187 -48 157 2 194 11 194 46 0 9 10 20 23 24 27 8 67 50
67 70 0 7 6 14 13 14 40 0 67 27 93 95 26 67 28 81 35 306 7 244 11 270 57
322 14 15 17 79 24 454 8 465 10 483 58 483 11 0 21 1 22 3 2 2 17 564 19 717
1 76 2 714 2 1095 0 39 0 111 0 160 2 195 2 369 0 560 -2 268 -2 247 -10 360
-8 95 -9 100 -30 99 -17 0 -23 5 -23 22 0 23 -45 54 -78 54 -9 0 -13 7 -9 20
3 13 -1 24 -12 29 -23 13 -325 18 -351 7z m-505 -2726 c17 -11 46 -20 66 -20
23 0 42 -7 54 -20 10 -11 26 -20 36 -20 54 0 77 -39 78 -135 0 -39 5 -86 11
-105 15 -50 12 -254 -5 -330 -8 -36 -18 -105 -21 -155 -5 -55 -14 -101 -25
-120 -9 -16 -19 -57 -22 -91 -3 -33 -12 -75 -21 -93 -10 -18 -19 -55 -22 -84
-6 -52 -42 -147 -56 -147 -5 0 -17 -9 -27 -19 -11 -11 -34 -27 -50 -36 -17 -8
-31 -19 -31 -24 0 -5 -17 -12 -37 -16 -21 -4 -46 -15 -56 -26 -13 -14 -32 -19
-71 -19 -39 0 -59 -5 -76 -20 -21 -18 -37 -20 -169 -20 -122 0 -151 3 -171 17
-13 9 -50 20 -82 24 -31 4 -64 14 -72 22 -9 8 -29 18 -45 22 -16 3 -37 15 -47
26 -9 10 -25 19 -34 19 -10 0 -20 9 -23 20 -3 11 -12 20 -21 20 -9 0 -16 6
-16 13 0 7 -10 23 -22 35 -38 36 -55 56 -68 82 -7 14 -19 29 -26 33 -8 4 -14
21 -14 37 0 17 -9 39 -22 52 -20 20 -21 29 -21 224 0 191 1 204 22 230 13 17
21 41 21 65 0 25 7 45 19 56 11 10 22 35 26 55 4 21 13 42 21 49 7 6 16 27 20
46 4 19 13 37 20 40 8 3 17 22 20 43 4 26 12 40 25 43 11 3 19 13 19 24 0 25
122 143 147 143 11 0 31 8 44 19 13 10 44 21 68 24 25 3 48 12 53 21 8 14 45
16 291 16 265 0 284 -1 312 -20z"/>
<path d="M34465 17793 c-49 -4 -70 -14 -70 -34 0 -6 -18 -23 -40 -38 -22 -15
-41 -37 -43 -48 -2 -12 -13 -25 -25 -29 -24 -8 -43 -28 -57 -62 -5 -12 -18
-25 -27 -29 -39 -14 -51 -33 -46 -76 4 -48 -14 -92 -40 -92 -10 0 -22 -7 -27
-15 -5 -8 -15 -15 -22 -15 -10 0 -13 -24 -13 -95 0 -99 -6 -123 -29 -114 -8 3
-17 1 -20 -5 -4 -6 -9 -167 -10 -357 -3 -254 -7 -348 -16 -354 -8 -5 -13 -48
-14 -126 -3 -118 -10 -159 -26 -149 -5 3 -12 0 -17 -7 -4 -7 -12 -238 -16
-513 -11 -656 -11 -619 -7 -935 4 -394 -9 -530 -52 -530 -10 0 -18 -1 -19 -2
-5 -16 -15 -1037 -10 -1056 4 -16 16 -28 27 -30 10 -2 26 -17 34 -35 8 -18 26
-37 40 -44 13 -6 31 -21 40 -32 8 -10 31 -28 50 -39 19 -10 37 -27 39 -38 2
-10 10 -23 17 -27 8 -5 12 -12 9 -18 -4 -5 32 -9 89 -9 57 0 96 4 96 10 0 6
14 10 31 10 44 0 73 18 59 35 -9 11 -6 14 12 17 15 2 31 18 46 46 15 26 30 42
43 42 11 0 21 9 24 23 5 25 18 1144 14 1252 -4 88 -3 157 3 317 5 126 13 158
44 158 20 0 34 34 34 84 0 63 35 103 98 111 86 11 92 14 92 40 0 32 26 45 94
45 53 0 94 20 81 39 -2 5 5 17 16 27 17 15 38 19 103 20 44 1 133 7 196 14
141 14 136 14 295 -1 107 -9 134 -15 153 -32 12 -11 22 -26 22 -34 0 -7 18
-24 40 -38 52 -33 62 -60 59 -161 -3 -83 7 -114 37 -114 7 0 22 -12 31 -27 17
-25 18 -79 22 -758 2 -426 7 -737 12 -747 5 -10 16 -18 23 -18 21 0 49 -74 44
-117 -5 -39 10 -64 45 -76 9 -4 20 -15 24 -24 9 -27 35 -54 61 -64 12 -5 22
-17 22 -27 0 -20 30 -49 66 -62 14 -6 24 -18 24 -30 0 -11 5 -20 10 -20 6 0
10 -7 10 -15 0 -11 12 -15 45 -15 35 0 45 4 45 16 0 9 9 18 21 21 12 4 18 11
15 20 -3 8 4 18 18 25 14 6 27 22 31 36 4 15 24 41 45 59 21 19 40 43 42 56 2
16 9 21 25 19 15 -2 24 4 29 20 15 42 5 1085 -12 1323 -9 121 -16 258 -16 305
-1 62 -7 103 -23 150 -13 36 -25 93 -29 128 -8 90 -15 112 -36 112 -24 0 -34
32 -31 98 1 31 -2 52 -8 52 -6 0 -24 14 -41 31 -28 30 -35 51 -32 89 3 27 -8
61 -18 55 -5 -3 -11 -1 -15 5 -3 5 -14 10 -25 10 -11 0 -26 15 -37 38 -11 20
-32 43 -46 50 -15 7 -27 19 -27 27 0 17 -50 65 -67 65 -7 0 -13 6 -13 14 0 23
-50 76 -71 76 -10 0 -19 6 -19 14 0 17 -56 66 -76 66 -8 0 -14 6 -14 13 0 8
-7 29 -16 46 -14 28 -20 32 -43 26 -63 -15 -80 -16 -100 -5 -18 9 -20 14 -11
25 22 27 0 35 -99 35 -57 0 -118 6 -147 15 -38 11 -59 12 -85 4 -19 -6 -98
-13 -176 -16 -153 -6 -175 -12 -154 -37 20 -24 -26 -37 -101 -29 -44 4 -59 3
-54 -5 11 -19 -21 -68 -54 -82 -24 -10 -37 -10 -56 -1 -34 15 -64 14 -70 -4
-4 -8 -14 -15 -25 -15 -10 0 -24 -9 -32 -21 -11 -14 -23 -20 -43 -17 -32 3
-31 1 -56 168 -18 121 -14 395 6 443 10 26 19 35 30 31 11 -4 19 2 26 20 5 14
15 26 21 26 7 0 9 15 4 48 -3 26 -9 141 -11 255 -5 180 -3 212 10 233 9 13 25
24 37 24 11 0 23 8 26 18 4 9 13 22 21 28 12 9 12 27 -2 132 -14 97 -16 160
-10 311 7 203 0 251 -37 251 -10 0 -24 12 -31 27 -7 15 -28 37 -45 48 -18 11
-32 28 -33 37 0 21 -30 39 -62 36 -13 -1 -45 -3 -73 -5z"/>
<path d="M23868 17104 c-4 -3 -352 -8 -775 -10 -422 -3 -775 -7 -784 -10 -9
-2 -19 -13 -22 -23 -5 -21 -72 -37 -107 -26 -11 3 -44 -1 -73 -9 -29 -8 -97
-18 -151 -22 -90 -7 -98 -9 -107 -31 -8 -21 -14 -23 -79 -23 -40 0 -86 -6
-107 -15 -22 -9 -68 -15 -122 -15 -107 0 -134 -7 -128 -31 7 -27 -32 -37 -169
-43 -138 -6 -174 -16 -174 -45 0 -13 -12 -27 -30 -36 -16 -8 -37 -27 -47 -41
-15 -24 -58 -49 -75 -46 -4 1 -13 -16 -19 -37 -7 -24 -19 -41 -30 -44 -17 -5
-19 -16 -19 -95 0 -52 4 -94 10 -97 6 -4 18 -24 27 -46 8 -22 24 -44 34 -50
11 -5 19 -16 19 -23 0 -20 77 -49 145 -56 55 -5 60 -7 58 -27 -2 -20 2 -23 28
-23 26 0 31 3 26 20 -8 32 28 45 133 47 268 5 563 22 645 38 67 13 112 15 181
10 100 -7 116 -16 128 -70 4 -16 13 -37 20 -45 8 -8 16 -41 20 -74 8 -69 13
-81 31 -66 9 7 16 6 25 -5 9 -11 11 -38 6 -98 -4 -57 -2 -100 9 -142 11 -48
14 -146 15 -475 0 -453 12 -681 37 -739 38 -87 69 -606 42 -691 -6 -19 -14
-83 -18 -142 -5 -84 -11 -111 -25 -127 -17 -19 -20 -44 -25 -214 -8 -259 -5
-318 20 -324 21 -6 40 -61 36 -107 -2 -24 4 -32 36 -49 21 -11 43 -29 47 -41
15 -34 36 -56 54 -56 9 0 19 -8 23 -17 9 -27 35 -54 61 -64 17 -7 22 -14 17
-29 -8 -24 20 -33 86 -28 38 3 44 6 44 26 0 15 11 28 35 40 19 9 40 27 46 39
6 13 26 33 45 46 19 12 38 33 44 45 5 12 15 22 22 22 18 0 63 52 63 72 0 21
16 32 26 17 13 -22 34 23 34 72 0 25 7 63 15 82 8 20 15 65 15 99 0 35 5 81
11 103 5 22 12 146 15 275 2 129 7 330 11 447 6 204 2 278 -28 503 -5 41 -11
100 -14 130 -2 30 -8 109 -14 175 -6 66 -11 201 -11 300 0 183 -18 343 -41
371 -7 8 -14 49 -17 92 -2 42 -11 89 -18 104 -10 20 -14 72 -14 190 0 109 -5
185 -15 228 -9 36 -18 95 -21 132 -6 65 -6 68 24 97 19 20 41 31 59 31 47 0
74 12 83 35 16 41 134 50 619 48 287 -2 347 -5 366 -17 15 -10 22 -22 18 -34
-6 -24 20 -32 102 -31 81 1 110 10 110 34 0 12 8 21 20 23 25 5 65 41 65 59 0
7 9 13 19 13 11 0 22 4 26 9 5 8 9 285 6 359 -1 14 -10 26 -25 32 -13 4 -26
20 -30 34 -4 16 -17 29 -41 37 -21 8 -35 20 -37 33 -3 18 -14 22 -103 33 -102
12 -437 18 -447 7z"/>
<path d="M31188 16213 c-10 -2 -18 -13 -18 -23 0 -24 -19 -30 -94 -30 -35 0
-66 -3 -70 -7 -4 -5 -29 -13 -54 -18 -33 -7 -47 -15 -47 -27 0 -25 -6 -28 -71
-33 -59 -6 -104 -32 -104 -61 0 -7 -10 -16 -22 -20 -32 -9 -58 -34 -58 -54 0
-9 -17 -28 -37 -41 -21 -13 -44 -36 -51 -52 -7 -15 -19 -27 -27 -27 -7 0 -28
-17 -46 -37 -18 -21 -45 -46 -60 -55 -16 -10 -31 -29 -35 -42 -3 -14 -22 -34
-41 -46 -19 -11 -40 -34 -46 -50 -6 -17 -17 -30 -25 -30 -7 0 -24 -8 -38 -17
-22 -14 -25 -21 -19 -50 7 -40 -11 -103 -30 -103 -14 0 -75 -65 -75 -80 0 -6
-6 -10 -13 -10 -29 0 -45 -34 -44 -92 1 -56 -19 -98 -46 -98 -27 0 -45 -32
-40 -69 6 -45 -19 -101 -45 -101 -30 0 -51 -34 -46 -77 6 -45 -15 -89 -39 -85
-37 6 -40 -37 -39 -488 1 -239 4 -452 7 -472 6 -31 11 -38 30 -38 28 0 35 -17
35 -79 0 -51 20 -81 54 -81 25 0 49 -65 42 -111 -6 -35 -4 -38 30 -54 19 -9
38 -24 41 -33 13 -36 45 -72 64 -72 14 0 19 -7 19 -25 0 -24 31 -65 49 -65 5
0 19 -16 31 -35 12 -20 35 -39 56 -47 21 -7 34 -19 34 -29 0 -10 9 -21 20 -24
11 -3 20 -11 20 -16 0 -6 17 -8 45 -3 49 7 95 -13 95 -42 0 -8 7 -17 15 -20 8
-4 15 -12 15 -20 0 -17 20 -18 53 -3 34 15 88 -12 84 -43 -1 -15 4 -23 18 -26
11 -2 25 -11 31 -20 9 -12 26 -14 93 -9 47 4 92 2 108 -4 25 -9 25 -10 7 -24
-18 -13 -18 -14 9 -24 16 -6 53 -11 83 -11 32 0 54 -4 54 -11 0 -7 22 -9 68
-5 37 4 105 5 152 4 129 -4 262 -2 290 5 14 3 42 9 63 12 32 5 38 10 34 25 -7
26 21 34 112 31 52 -1 78 2 90 12 9 8 26 18 39 22 15 4 21 12 18 21 -8 22 32
37 81 30 39 -5 46 -3 50 13 3 11 11 22 19 25 8 3 14 13 14 23 0 11 15 27 36
38 20 11 39 27 43 37 3 9 22 27 41 40 19 13 41 36 48 51 7 15 19 27 26 27 7 0
31 19 54 43 22 23 54 52 71 65 17 13 31 28 31 34 0 6 18 26 40 45 22 19 40 41
40 48 0 8 16 21 35 31 23 11 39 27 47 50 7 21 18 33 28 31 30 -4 23 57 -19
177 -4 11 -18 20 -35 22 -44 5 -56 12 -56 33 0 13 -16 29 -45 47 -27 15 -45
33 -45 44 0 24 -19 30 -93 30 -80 0 -107 -8 -107 -30 0 -11 -18 -29 -45 -44
-25 -15 -45 -34 -45 -42 0 -8 -8 -17 -17 -21 -26 -9 -73 -54 -73 -70 0 -7 -4
-13 -10 -13 -15 0 -80 -61 -80 -76 0 -20 -33 -34 -83 -34 -46 0 -77 -21 -77
-52 0 -37 -59 -51 -147 -35 -31 5 -45 3 -57 -8 -22 -23 -389 -22 -435 1 -23
12 -45 14 -81 9 -68 -9 -107 1 -122 32 -16 32 -65 51 -135 52 -70 1 -101 15
-141 62 -18 21 -40 39 -47 39 -8 0 -20 12 -27 27 -7 15 -29 38 -48 51 -44 29
-48 41 -49 124 -1 37 -5 69 -10 72 -5 3 -12 32 -16 63 -4 32 -14 76 -24 98
-21 53 -22 204 -1 230 15 18 29 144 33 295 2 99 17 131 69 146 33 10 33 11 30
64 -4 68 10 101 51 120 27 13 32 21 34 53 1 45 21 97 36 97 15 0 67 51 67 67
0 7 10 18 23 24 23 12 47 41 58 68 3 9 23 25 45 36 21 11 43 30 49 42 11 26
52 43 102 43 34 0 72 29 73 56 0 21 57 36 107 29 31 -4 69 -1 108 9 74 20 200
21 253 2 23 -8 68 -15 100 -14 67 1 82 -5 82 -31 0 -21 41 -31 130 -31 72 0
100 8 100 30 0 9 18 30 40 45 22 15 40 34 40 41 0 7 16 20 35 29 19 10 40 30
47 46 7 16 16 29 20 29 13 0 50 45 60 73 7 20 15 26 28 22 13 -4 21 2 28 25 6
17 9 36 7 43 -2 7 -6 25 -9 40 -5 21 -11 27 -24 23 -13 -4 -23 4 -37 30 -11
20 -30 40 -42 45 -13 5 -27 19 -32 32 -5 12 -25 31 -45 42 -20 11 -36 25 -36
33 0 7 -7 24 -17 38 -15 23 -21 25 -62 19 -58 -8 -106 8 -97 32 4 9 1 20 -6
25 -13 8 -679 9 -710 1z"/>
<path d="M19348 16043 c-11 -3 -18 -14 -18 -28 0 -15 -7 -26 -21 -30 -31 -10
-59 -37 -59 -57 0 -21 -16 -32 -25 -18 -9 15 -35 -7 -35 -29 0 -9 -6 -23 -12
-29 -8 -8 -15 -53 -18 -112 -5 -83 -9 -102 -25 -114 -25 -18 -33 -105 -34
-342 -1 -136 -4 -177 -17 -203 -13 -26 -15 -48 -10 -102 8 -72 -4 -112 -28
-103 -21 8 -26 -7 -31 -93 -3 -43 -10 -99 -17 -125 -9 -38 -9 -59 1 -99 10
-36 11 -81 6 -152 -8 -113 -17 -145 -42 -154 -41 -14 -53 -35 -53 -93 0 -56
-18 -90 -47 -90 -12 0 -48 -40 -56 -62 -4 -10 -15 -18 -26 -18 -10 0 -31 -15
-45 -32 -32 -41 -33 -42 -73 -74 -18 -14 -33 -35 -33 -45 0 -11 -8 -22 -17
-26 -26 -9 -63 -44 -63 -60 0 -24 -48 -46 -88 -41 -42 6 -87 -21 -87 -50 0
-28 -45 -43 -109 -37 -35 3 -64 1 -72 -6 -17 -14 -342 -18 -352 -3 -4 5 -29
11 -56 12 -67 2 -86 10 -86 34 0 23 -37 57 -62 58 -24 0 -39 54 -32 116 4 33
3 59 -4 67 -16 19 -17 550 -2 726 7 80 10 163 8 185 -8 67 3 101 32 101 25 0
25 1 28 94 1 52 7 100 13 107 12 15 14 83 4 146 -6 37 -4 53 9 73 14 22 20 24
32 14 8 -6 18 -9 22 -5 9 10 23 121 28 243 4 84 2 106 -12 127 -9 14 -22 26
-29 26 -7 0 -22 16 -34 35 -11 20 -29 38 -38 42 -10 3 -28 18 -40 32 -20 25
-27 26 -140 31 -92 5 -123 3 -140 -8 -13 -8 -23 -19 -23 -25 0 -5 -18 -25 -40
-44 -22 -19 -40 -41 -40 -49 0 -8 -9 -14 -19 -14 -31 0 -51 -53 -51 -135 0
-83 -15 -139 -36 -131 -23 9 -31 -24 -39 -154 -8 -137 -23 -190 -53 -190 -23
0 -32 -18 -32 -63 -1 -18 -7 -59 -15 -92 -8 -33 -15 -89 -15 -123 0 -54 -3
-65 -19 -69 -11 -3 -22 -15 -25 -27 -8 -34 -9 -928 -1 -949 5 -11 14 -16 26
-12 32 10 49 -41 49 -148 0 -71 4 -98 15 -107 8 -6 18 -9 23 -6 20 12 43 -43
41 -98 -2 -56 19 -106 44 -106 7 0 17 -10 22 -22 6 -11 25 -29 44 -39 18 -10
39 -28 45 -41 6 -13 26 -32 43 -43 17 -11 39 -34 48 -52 10 -18 30 -36 46 -42
20 -7 27 -15 23 -25 -4 -11 2 -19 20 -26 14 -5 26 -14 26 -20 0 -6 36 -10 93
-10 99 0 113 -4 118 -35 4 -19 13 -20 283 -23 284 -2 322 2 295 34 -19 23 25
36 97 29 40 -5 69 -3 77 3 6 6 29 13 50 17 30 6 37 11 37 31 0 22 4 24 49 24
60 0 122 34 118 65 -1 15 5 21 25 23 28 3 68 43 68 68 0 16 34 27 60 19 13 -4
33 2 54 14 44 28 74 27 85 -1 5 -13 15 -61 21 -108 15 -104 47 -185 67 -169 9
8 16 4 25 -17 15 -35 37 -59 61 -67 9 -4 17 -12 17 -20 0 -7 10 -22 23 -33 17
-15 38 -19 97 -20 42 0 90 -3 108 -7 26 -5 36 -2 57 21 14 15 25 31 25 37 0 5
18 20 40 33 22 12 40 28 40 35 0 7 14 24 31 36 17 13 37 39 45 58 12 27 18 32
28 24 23 -19 26 10 26 257 0 207 -2 241 -18 267 -15 26 -17 58 -17 235 0 163
3 210 15 230 11 19 16 83 22 285 4 143 11 316 16 385 5 69 5 137 1 153 -7 25
-2 54 16 100 5 11 14 16 25 12 13 -4 19 1 24 21 11 41 18 824 8 859 -5 19 -16
31 -29 33 -12 2 -23 11 -26 21 -2 10 -23 27 -46 37 -30 13 -41 24 -41 40 0 14
-8 24 -22 28 -26 7 -224 6 -250 -1z"/>
<path d="M9460 15885 c-17 -10 -57 -14 -126 -15 -78 0 -104 -4 -114 -15 -7 -8
-9 -15 -4 -16 5 -1 -9 -7 -30 -13 -32 -10 -39 -17 -42 -40 -1 -15 -8 -34 -14
-42 -16 -18 -74 -34 -100 -27 -24 6 -60 -22 -60 -48 0 -10 -15 -25 -37 -36
-21 -10 -43 -28 -49 -40 -6 -13 -26 -33 -45 -46 -19 -12 -38 -32 -43 -44 -6
-12 -24 -28 -41 -36 -16 -8 -37 -27 -45 -43 -8 -16 -29 -41 -47 -57 -17 -15
-34 -36 -38 -45 -3 -10 -20 -25 -38 -33 -19 -8 -38 -27 -46 -46 -8 -18 -22
-33 -31 -33 -9 0 -26 -11 -39 -24 -19 -20 -20 -27 -10 -49 15 -34 -4 -83 -40
-101 -33 -18 -58 -45 -63 -71 -2 -11 -10 -20 -18 -20 -31 0 -60 -43 -60 -88 0
-53 -14 -73 -60 -84 -43 -11 -48 -26 -49 -162 -1 -64 -8 -127 -18 -165 -14
-50 -17 -106 -18 -306 0 -238 1 -245 20 -245 42 0 60 -42 62 -145 1 -52 2 -98
2 -102 1 -5 10 -8 21 -8 40 0 60 -35 60 -104 0 -63 1 -65 29 -71 45 -10 56
-30 56 -104 0 -65 0 -66 35 -82 21 -10 37 -26 40 -40 4 -15 21 -32 45 -44 23
-13 42 -30 45 -44 3 -14 20 -30 40 -40 21 -10 36 -25 40 -41 3 -14 21 -35 40
-48 18 -12 41 -36 51 -52 10 -16 32 -36 49 -45 16 -8 30 -21 30 -29 0 -15 37
-50 63 -59 9 -4 22 -18 27 -32 5 -14 26 -35 46 -47 19 -11 40 -31 44 -44 5
-13 26 -32 47 -41 24 -12 39 -27 43 -43 4 -16 19 -31 43 -43 22 -10 37 -24 37
-35 0 -35 21 -42 121 -42 84 0 100 -3 125 -22 16 -13 34 -29 41 -38 9 -12 61
-16 310 -22 369 -10 467 -3 476 31 4 18 50 31 108 31 26 0 69 36 69 58 0 18
35 32 83 32 46 0 77 21 77 53 0 29 46 50 94 44 45 -6 65 5 79 44 3 10 23 27
45 39 22 12 44 32 50 44 12 27 70 46 120 39 37 -5 39 -4 48 28 7 25 20 39 47
52 27 13 39 25 43 47 4 18 14 32 28 36 30 9 56 34 56 55 0 10 15 25 38 36 26
13 40 28 46 50 8 27 14 31 32 27 22 -6 23 -3 26 78 4 111 0 131 -24 125 -14
-4 -22 2 -31 21 -15 36 -21 39 -81 46 -60 8 -74 15 -90 47 -6 13 -27 34 -46
47 -19 13 -35 31 -35 40 0 10 -8 17 -20 17 -13 0 -20 -6 -19 -17 2 -21 -65
-43 -96 -33 -32 10 -58 -4 -71 -38 -6 -19 -27 -42 -49 -56 -21 -13 -41 -35
-45 -48 -3 -12 -11 -23 -18 -23 -16 0 -61 -48 -70 -73 -9 -24 -55 -40 -98 -33
-37 6 -58 -8 -72 -47 -10 -27 -56 -40 -121 -33 -49 5 -68 2 -104 -15 -33 -17
-43 -26 -39 -40 8 -30 -26 -41 -99 -34 -44 5 -69 4 -78 -5 -22 -18 -378 -19
-399 -2 -11 10 -32 12 -69 7 -58 -6 -100 8 -104 37 -4 32 -41 61 -67 54 -39
-9 -84 12 -106 50 -12 19 -34 40 -50 47 -16 7 -39 25 -51 40 -12 15 -34 34
-50 42 -33 17 -55 71 -45 115 4 17 3 30 -2 30 -4 0 -24 14 -43 30 -34 28 -35
30 -37 112 -1 46 -5 108 -8 139 -7 55 -6 57 24 78 27 19 42 22 108 20 79 -3
311 8 371 17 18 3 32 11 32 19 0 27 14 30 354 64 4 1 6 10 3 21 -7 28 19 40
100 45 129 7 177 22 167 50 -8 21 29 35 93 36 32 0 101 6 153 12 82 11 96 15
105 35 5 12 17 22 26 22 10 0 29 15 43 33 14 17 31 37 37 42 46 43 59 60 59
77 0 10 10 22 23 27 28 11 67 48 67 64 1 7 15 21 33 32 17 11 37 32 44 46 7
14 28 31 47 39 38 14 53 37 36 54 -24 24 6 106 39 106 19 0 32 28 37 80 5 53
23 166 29 183 4 9 11 15 15 12 13 -8 20 34 20 117 0 55 -4 79 -14 85 -7 4 -21
22 -29 40 -9 17 -30 37 -47 44 -16 8 -35 26 -41 41 -6 15 -26 36 -45 47 -18
11 -36 30 -39 43 -4 14 -20 29 -44 39 -29 13 -41 24 -46 47 -5 24 -13 31 -40
36 -29 6 -36 13 -46 46 -7 22 -17 40 -23 40 -13 0 -66 54 -66 68 0 6 -17 14
-37 19 -25 6 -39 15 -41 27 -7 37 -38 59 -71 51 -43 -9 -101 11 -101 36 0 11
-10 23 -24 29 -14 5 -159 9 -323 9 -164 0 -336 5 -383 11 -102 12 -90 12 -120
-5z m534 -604 c9 -10 34 -21 55 -25 22 -3 41 -13 45 -21 3 -8 11 -15 19 -15
12 0 116 -99 173 -164 27 -31 36 -89 22 -144 -8 -33 -27 -61 -73 -108 -34 -35
-69 -64 -77 -64 -9 0 -27 -9 -41 -20 -14 -11 -34 -20 -44 -20 -10 0 -36 -9
-57 -20 -22 -10 -66 -22 -100 -26 -34 -4 -74 -14 -91 -22 -18 -10 -74 -18
-145 -23 -64 -4 -133 -14 -155 -22 -29 -11 -99 -17 -245 -21 -113 -3 -228 -8
-255 -12 -41 -5 -55 -3 -73 13 -29 23 -34 83 -10 110 9 10 19 39 23 65 4 26
13 52 21 59 7 6 16 27 20 46 5 25 27 54 84 111 109 108 121 118 153 126 15 3
27 13 27 20 0 8 13 17 30 21 16 4 36 14 42 24 7 10 30 21 52 24 21 3 43 13 50
20 6 8 30 17 54 20 24 3 51 12 60 21 10 8 52 19 94 24 47 6 84 16 93 26 13 13
39 16 124 16 93 0 110 -3 125 -19z"/>
<path d="M26785 15887 c-11 -8 -29 -16 -40 -18 -12 -3 -20 -12 -20 -24 0 -32
-59 -55 -143 -55 -78 0 -117 -13 -108 -35 8 -23 -24 -40 -88 -45 -55 -5 -62
-8 -74 -33 -8 -16 -27 -33 -42 -39 -17 -6 -35 -23 -45 -44 -11 -24 -31 -42
-61 -56 -24 -12 -46 -30 -50 -40 -3 -10 -10 -18 -17 -18 -17 0 -157 -147 -157
-165 0 -8 -6 -15 -13 -15 -18 0 -57 -42 -57 -61 0 -21 -20 -38 -35 -32 -22 8
-39 -38 -36 -95 3 -57 -15 -92 -49 -92 -19 0 -37 -18 -55 -53 -6 -12 -19 -23
-29 -25 -10 -2 -27 -13 -37 -23 -16 -16 -17 -23 -8 -40 14 -27 4 -82 -19 -101
-9 -9 -31 -23 -49 -32 -28 -14 -31 -19 -26 -49 3 -23 -3 -54 -21 -98 -14 -35
-30 -84 -35 -109 -12 -51 -15 -679 -3 -696 4 -7 16 -13 27 -15 17 -4 20 -13
23 -70 l3 -65 44 -19 c39 -15 47 -24 56 -58 8 -31 8 -46 -3 -65 -12 -22 -11
-26 12 -41 60 -39 73 -59 68 -111 -5 -44 -2 -50 23 -69 16 -12 32 -21 38 -21
5 0 18 -16 30 -35 11 -19 32 -40 46 -45 14 -5 25 -16 25 -24 0 -16 53 -76 67
-76 5 0 14 -13 21 -30 8 -16 27 -38 43 -47 17 -10 39 -33 49 -51 11 -18 31
-37 45 -42 14 -5 30 -21 35 -35 5 -14 24 -34 41 -44 17 -10 39 -32 49 -48 10
-16 31 -35 48 -42 16 -7 34 -23 40 -35 5 -13 27 -31 47 -40 20 -10 40 -28 45
-40 4 -13 24 -31 44 -40 27 -13 36 -23 36 -41 0 -20 6 -25 38 -30 20 -3 51
-10 68 -15 17 -6 47 -10 67 -10 40 0 88 -16 98 -32 13 -21 103 -27 436 -28
l342 0 26 24 c17 16 43 26 78 30 55 7 97 33 97 60 0 23 32 36 88 36 52 0 77
16 84 55 5 29 46 47 96 41 46 -6 82 14 82 46 0 9 10 20 23 24 35 11 66 37 67
57 0 9 6 17 14 17 20 0 76 49 76 66 0 8 8 17 18 21 24 8 62 44 62 58 0 6 18
26 41 44 22 18 44 44 49 57 5 13 15 24 21 24 16 0 57 45 61 67 2 9 14 20 27
23 15 3 32 20 44 43 14 27 25 37 43 37 22 0 24 4 24 43 -1 90 -37 165 -73 151
-22 -8 -54 12 -69 43 -7 15 -26 36 -43 48 -16 11 -30 27 -30 35 0 22 -78 36
-111 21 -15 -7 -24 -17 -21 -25 7 -19 -35 -36 -87 -36 -43 0 -66 -15 -79 -53
-4 -9 -17 -22 -29 -27 -34 -14 -54 -33 -62 -58 -4 -12 -12 -22 -19 -22 -15 0
-67 -51 -67 -66 0 -14 -40 -31 -95 -40 -47 -8 -64 -19 -76 -51 -15 -39 -103
-58 -151 -32 -17 9 -28 8 -52 -4 -17 -8 -39 -17 -48 -20 -9 -3 -18 -16 -20
-29 -3 -22 -8 -23 -88 -26 -46 -2 -87 -7 -91 -13 -10 -16 -375 -17 -390 -1 -8
7 -39 12 -75 12 -75 0 -94 6 -94 31 0 11 -7 22 -15 25 -8 4 -15 12 -15 19 0
17 -28 27 -48 16 -27 -13 -79 7 -103 40 -12 17 -37 38 -55 45 -19 8 -34 20
-34 27 0 19 -43 57 -63 57 -32 0 -47 61 -32 128 7 31 6 33 -39 52 -26 12 -47
28 -48 38 -1 9 -3 44 -4 77 -2 33 -6 86 -9 118 -6 47 -4 62 10 77 23 25 40 27
280 40 225 12 255 16 255 35 0 18 23 25 83 25 29 0 65 7 81 15 15 8 54 15 86
15 67 0 110 13 110 34 0 19 22 26 83 26 46 1 132 23 164 43 6 4 9 15 6 25 -7
27 41 44 118 41 35 0 100 3 144 7 72 8 80 11 83 32 2 12 9 22 17 22 19 0 75
49 75 66 0 7 13 20 30 29 16 8 37 27 46 40 9 14 28 31 42 38 15 6 36 27 47 44
11 18 28 35 37 38 9 3 26 26 38 50 15 30 28 45 41 45 10 0 19 5 19 10 0 6 9
10 20 10 19 0 20 4 15 63 -7 70 4 99 29 78 13 -11 17 -10 22 5 3 11 12 36 20
57 17 45 18 83 3 92 -7 5 -10 71 -8 199 1 106 -1 198 -5 204 -4 7 -14 12 -21
12 -8 0 -24 18 -35 39 -11 22 -29 42 -39 46 -11 3 -29 21 -41 39 -11 19 -34
39 -50 46 -17 7 -36 24 -43 38 -6 14 -27 33 -46 43 -19 10 -40 32 -48 48 -9
17 -28 34 -44 40 -16 5 -29 16 -29 24 0 16 -40 53 -69 62 -12 3 -21 13 -21 21
0 8 -8 26 -17 40 -14 23 -21 25 -54 20 -48 -8 -87 7 -98 37 -15 39 -36 50 -88
43 -135 -17 -596 -11 -713 9 -23 4 -42 1 -55 -8z m530 -607 c17 -11 40 -20 53
-20 12 0 31 -9 42 -20 11 -11 25 -20 31 -20 6 0 36 -26 66 -57 81 -86 83 -89
83 -101 0 -6 11 -19 25 -28 21 -14 25 -24 25 -69 0 -42 -5 -57 -25 -79 -14
-15 -25 -33 -25 -41 0 -20 -83 -105 -102 -105 -8 0 -27 -9 -41 -20 -14 -11
-34 -20 -44 -20 -10 0 -37 -9 -58 -20 -22 -11 -65 -23 -95 -26 -30 -3 -84 -15
-119 -25 -35 -10 -89 -19 -120 -19 -31 0 -83 -5 -116 -10 -58 -10 -312 -33
-506 -46 -120 -8 -139 0 -139 59 0 23 7 55 16 72 8 16 20 52 26 80 6 27 16 57
23 65 7 8 16 26 20 40 4 14 16 31 26 38 11 7 19 20 19 28 0 8 7 14 15 14 7 0
18 6 22 14 10 18 142 126 154 126 5 0 18 9 29 20 11 11 28 20 38 20 11 0 27 9
37 20 10 11 29 20 42 20 12 0 31 8 42 19 10 10 39 20 65 23 30 4 55 13 67 27
16 17 31 21 84 21 51 0 69 4 83 19 15 17 32 19 122 20 89 1 110 -2 135 -19z"/>
<path d="M33943 9925 c-3 -9 -4 -17 -2 -19 8 -7 49 13 49 24 0 16 -40 12 -47
-5z"/>
<path d="M21996 9811 c-15 -16 -17 -24 -8 -33 16 -16 35 3 30 32 l-3 22 -19
-21z"/>
<path d="M7961 9782 c-6 -11 -6 -23 0 -33 8 -12 12 -11 24 5 8 11 15 26 15 33
0 19 -28 16 -39 -5z"/>
<path d="M19196 9778 c-6 -31 -16 -142 -22 -263 -3 -55 -7 -110 -10 -123 -7
-35 -59 -52 -162 -52 -98 0 -138 -15 -107 -40 10 -9 44 -14 96 -14 74 -1 83
-3 101 -26 20 -24 20 -33 13 -245 -8 -250 -3 -297 28 -293 16 2 22 -4 29 -29
5 -19 15 -33 23 -33 13 0 15 40 15 275 0 227 3 281 15 305 19 36 43 50 89 50
44 0 136 19 136 28 -1 19 -30 42 -52 42 -43 0 -142 22 -156 35 -11 10 -11 32
-3 111 13 127 17 266 7 282 -12 20 -35 14 -40 -10z"/>
<path d="M21950 9755 c0 -8 2 -15 4 -15 2 0 6 7 10 15 3 8 1 15 -4 15 -6 0
-10 -7 -10 -15z"/>
<path d="M25646 9728 c-10 -25 -15 -155 -20 -535 -5 -484 -2 -574 23 -547 13
14 31 190 31 306 0 92 3 109 27 160 28 58 28 58 73 58 25 0 54 6 65 13 26 17
160 42 205 38 l35 -3 -24 26 c-22 23 -32 26 -95 26 -76 -1 -158 -18 -178 -38
-17 -17 -73 -15 -88 3 -20 24 -24 170 -7 265 17 91 12 195 -11 238 -17 29 -21
28 -36 -10z"/>
<path d="M5010 9735 c-8 -9 -16 -68 -22 -153 -25 -381 -23 -367 -48 -413 -23
-42 -24 -54 -28 -277 -4 -238 0 -271 34 -258 8 3 18 -3 23 -12 9 -15 11 -14
12 8 4 48 -3 145 -11 160 -5 10 -1 38 10 70 16 46 19 85 20 244 0 169 2 192
19 220 17 28 20 54 22 219 3 189 -3 226 -31 192z"/>
<path d="M33739 9713 c-7 -18 -9 -78 -6 -164 3 -77 1 -142 -4 -152 -6 -9 -28
-20 -49 -23 -22 -4 -45 -13 -51 -20 -6 -8 -27 -14 -46 -14 -19 0 -48 -8 -66
-17 l-32 -16 30 -9 c17 -4 73 -7 125 -6 52 1 105 -2 117 -6 11 -4 29 -23 39
-44 16 -33 19 -72 21 -360 2 -206 -1 -330 -7 -342 -8 -15 -6 -21 8 -29 23 -12
77 0 76 17 -1 7 -2 21 -2 33 -1 11 -6 17 -12 14 -15 -9 -13 151 2 175 9 14 9
24 1 42 -16 33 -25 494 -9 506 21 16 94 32 147 32 38 0 50 3 39 10 -9 5 -60 7
-120 3 -103 -5 -105 -5 -129 20 -23 25 -23 30 -22 187 2 157 -4 190 -30 190
-5 0 -14 -12 -20 -27z"/>
<path d="M21924 9720 c-20 -8 -21 -19 -29 -172 -5 -89 -9 -330 -10 -534 -2
-262 -6 -377 -14 -392 -10 -20 -9 -23 11 -31 13 -5 29 -6 36 -4 7 3 19 0 27
-7 14 -12 35 -6 35 10 0 5 -9 18 -20 28 -20 19 -20 27 -16 363 3 189 7 405 9
479 1 74 1 165 -3 201 -5 62 -6 66 -26 59z"/>
<path d="M36005 9708 c-2 -7 -6 -81 -7 -165 -3 -145 -4 -153 -27 -177 -22 -23
-32 -26 -95 -26 -82 0 -107 -10 -87 -34 10 -12 31 -16 78 -16 55 0 67 -4 88
-25 25 -24 25 -27 27 -207 3 -306 5 -362 19 -390 6 -16 18 -28 26 -28 18 0 17
54 -3 91 -17 33 -16 58 6 354 15 200 14 198 119 207 101 8 111 12 111 37 0 11
6 21 13 24 6 2 -28 6 -78 10 -49 3 -102 10 -117 16 l-28 11 0 130 c0 72 4 140
10 150 8 14 5 21 -15 34 -29 19 -34 20 -40 4z"/>
<path d="M15810 9640 c-7 -16 -19 -30 -26 -30 -12 0 -14 -20 -12 -102 1 -57
-1 -113 -5 -125 -10 -27 -55 -43 -127 -43 -33 0 -64 -6 -76 -14 -19 -15 -19
-15 1 -30 15 -12 34 -14 75 -10 70 7 120 -17 132 -61 5 -16 10 -146 11 -288 4
-246 5 -259 24 -279 l21 -21 -5 179 c-3 99 0 237 5 309 11 149 21 165 96 165
22 0 57 5 76 10 19 6 59 11 88 11 42 1 52 5 48 16 -3 8 -6 18 -6 22 0 5 -51
11 -114 14 -65 3 -127 11 -143 19 -28 13 -28 14 -29 113 -1 151 -3 175 -13
175 -5 0 -14 -13 -21 -30z"/>
<path d="M7876 9535 c-3 -9 -6 -244 -6 -522 -1 -508 1 -536 33 -516 5 3 5 75
2 162 -7 162 5 313 25 319 6 2 23 15 37 28 29 27 74 31 93 9 7 -8 20 -15 29
-15 35 0 56 113 21 116 -8 1 -21 2 -27 3 -7 0 -13 8 -13 16 0 20 -6 19 -30 -5
-23 -23 -68 -26 -96 -6 -18 13 -19 28 -19 204 0 145 -3 193 -14 205 -17 21
-27 21 -35 2z"/>
<path d="M7065 9414 c-9 -9 -13 -20 -8 -25 4 -4 62 -9 128 -10 l120 -1 0 23
c0 24 -2 24 -111 27 -94 2 -115 0 -129 -14z"/>
<path d="M20961 9356 c-7 -9 -22 -16 -33 -16 -31 0 -58 -19 -52 -35 5 -11 -3
-17 -25 -21 -21 -5 -31 -12 -31 -25 0 -11 2 -19 5 -19 11 0 63 30 67 37 5 13
141 42 170 36 37 -7 47 -21 54 -79 4 -27 13 -55 22 -61 12 -10 15 -34 14 -117
0 -91 -3 -109 -21 -132 -12 -15 -21 -41 -21 -58 0 -19 -8 -38 -20 -49 -11 -9
-20 -27 -20 -41 0 -21 5 -23 40 -23 39 0 40 1 46 39 7 42 37 69 57 49 19 -19
34 -12 47 19 10 24 10 48 0 118 -7 48 -15 119 -19 159 -6 74 -16 97 -30 74
-22 -35 -53 50 -34 92 17 36 3 52 -47 54 -25 1 -70 4 -100 8 -45 6 -58 4 -69
-9z"/>
<path d="M27181 9339 c-28 -38 -22 -45 28 -31 43 13 109 -2 122 -29 4 -8 17
-58 30 -111 31 -136 24 -208 -29 -310 -22 -42 -43 -87 -47 -100 -4 -12 -21
-39 -36 -59 -16 -20 -29 -40 -29 -43 0 -14 53 0 61 16 5 10 21 29 34 42 14 14
25 31 25 38 0 8 20 34 45 58 54 53 75 48 88 -19 6 -31 13 -41 25 -39 24 4 41
29 42 60 0 20 -5 27 -20 27 -11 1 -29 1 -39 2 -13 0 -24 15 -36 46 -15 39 -16
56 -6 132 13 101 14 174 4 185 -5 4 -12 26 -18 49 -8 34 -14 42 -33 42 -14 0
-27 9 -35 24 -8 15 -28 29 -57 37 -70 21 -93 18 -119 -17z"/>
<path d="M2482 9341 c-9 -5 -15 -83 -20 -287 -8 -273 -8 -280 12 -306 12 -15
25 -27 30 -27 5 -1 1 8 -10 20 -17 19 -19 36 -17 171 2 119 6 162 22 207 25
74 32 209 10 221 -8 5 -20 5 -27 1z"/>
<path d="M16803 9333 c-19 -7 -16 -31 5 -37 9 -3 59 -5 110 -4 72 1 95 4 99
15 3 8 0 19 -8 24 -15 9 -185 11 -206 2z"/>
<path d="M37447 9334 c-4 -4 -7 -18 -7 -31 0 -12 -6 -23 -13 -23 -16 0 -37
-129 -37 -231 0 -58 -4 -80 -16 -90 -13 -11 -15 -25 -10 -81 8 -77 0 -100 -43
-118 -26 -10 -61 -48 -61 -65 0 -3 15 -5 34 -5 42 0 54 -14 58 -70 2 -37 6
-45 23 -45 11 0 26 -8 33 -18 7 -9 17 -15 21 -12 5 2 9 116 9 252 2 232 3 250
22 276 18 24 20 39 18 144 -3 108 -11 137 -31 117z"/>
<path d="M39261 9331 c-12 -8 -12 -12 -2 -25 11 -13 8 -16 -20 -23 -34 -9 -52
-33 -24 -33 9 0 37 10 63 21 35 16 66 22 125 22 80 0 98 7 77 32 -9 11 -36 15
-109 15 -53 0 -102 -4 -110 -9z"/>
<path d="M17798 9183 c1 -82 -1 -245 -6 -363 -9 -227 -9 -221 36 -295 13 -21
20 57 21 257 1 155 4 207 14 211 8 2 12 28 12 81 0 66 3 80 20 92 11 9 30 13
43 11 13 -3 29 1 35 7 19 18 133 49 159 43 12 -3 46 -11 73 -17 28 -6 60 -16
72 -22 12 -6 28 -8 36 -5 9 3 24 -7 38 -26 19 -25 25 -51 31 -122 4 -49 12
-124 17 -165 5 -41 10 -123 10 -182 1 -59 4 -109 9 -111 4 -3 16 2 27 11 20
16 20 24 14 214 -6 162 -11 208 -28 257 -12 34 -21 67 -21 74 0 17 -55 67 -74
67 -10 0 -16 9 -16 24 0 22 -5 25 -57 31 -32 3 -80 10 -108 16 -38 7 -62 5
-99 -6 -56 -17 -162 -20 -171 -5 -3 6 -17 10 -31 10 -19 0 -26 6 -30 30 -4 17
-12 30 -18 30 -8 0 -10 -43 -8 -147z"/>
<path d="M29990 9286 c0 -28 7 -52 20 -69 25 -32 26 -80 1 -121 -16 -28 -19
-61 -24 -305 -6 -273 -2 -311 27 -311 31 0 43 42 35 130 -12 139 -10 308 6
418 20 140 28 152 100 152 18 0 46 7 61 15 16 8 36 15 45 15 9 0 31 6 50 14
28 12 39 12 76 -1 68 -23 73 -3 8 31 -33 18 -43 19 -106 8 -83 -14 -152 -15
-164 -3 -6 6 -30 11 -55 13 -41 3 -45 6 -48 31 -6 47 -32 33 -32 -17z"/>
<path d="M35278 9323 c-2 -4 -10 -28 -17 -53 -10 -38 -19 -67 -47 -168 -2 -7
-4 -77 -5 -155 -1 -152 -8 -179 -51 -192 -61 -19 -77 -65 -24 -65 45 0 69 -24
61 -60 -5 -22 0 -35 23 -59 15 -17 31 -28 35 -25 4 4 7 98 7 208 0 113 5 219
11 241 16 59 32 316 21 327 -5 5 -12 6 -14 1z"/>
<path d="M36801 9296 c-24 -39 -29 -90 -32 -342 -1 -95 2 -178 7 -185 5 -8 13
-22 19 -33 5 -10 15 -17 20 -15 14 6 7 42 -10 55 -24 18 -20 176 5 249 12 35
20 85 20 124 0 62 7 105 24 159 12 37 -28 28 -53 -12z"/>
<path d="M3087 9283 c-4 -3 -7 -50 -7 -103 0 -63 -4 -100 -12 -109 -9 -8 -13
-52 -13 -144 0 -133 -5 -157 -30 -157 -16 0 -85 -58 -85 -71 0 -5 18 -9 40 -9
45 0 53 -11 65 -83 5 -32 9 -37 26 -32 10 4 19 2 19 -3 0 -6 7 -12 15 -15 12
-5 14 12 12 111 -1 64 3 220 8 345 8 181 7 233 -3 253 -13 24 -23 29 -35 17z"/>
<path d="M3696 9268 c-3 -7 -8 -128 -11 -268 -12 -488 -12 -483 7 -503 16 -18
17 -18 45 2 28 21 29 23 20 84 -14 104 -20 358 -8 370 6 6 11 45 11 87 0 85
14 122 50 131 89 24 150 43 180 56 31 12 40 12 72 -2 73 -30 105 -10 41 26
-41 23 -65 25 -152 10 -42 -8 -94 -10 -120 -6 -25 3 -60 7 -77 9 -16 1 -36 6
-42 10 -7 4 -14 1 -16 -6z"/>
<path d="M9970 9269 c-29 -12 -153 -15 -221 -4 l-46 7 -7 -178 c-4 -98 -11
-185 -16 -194 -5 -9 -14 -54 -20 -100 -17 -121 0 -244 31 -225 4 3 16 -9 25
-27 l18 -33 7 25 c4 14 7 119 8 233 1 171 4 212 17 232 12 18 14 37 9 78 -6
48 -4 58 14 76 13 13 34 21 54 21 18 0 37 4 43 9 20 18 124 43 151 36 15 -4
48 -9 72 -12 34 -4 42 -2 39 8 -11 34 -133 67 -178 48z"/>
<path d="M16745 9269 c-4 -6 -5 -12 -2 -15 7 -7 37 7 37 17 0 13 -27 11 -35
-2z"/>
<path d="M17044 9255 c14 -13 26 -29 26 -35 0 -5 6 -10 14 -10 19 0 26 -22 26
-80 0 -27 4 -51 9 -54 5 -3 21 6 36 20 21 20 26 30 20 52 -9 35 -109 132 -137
132 -20 0 -19 -1 6 -25z"/>
<path d="M31710 9273 c-104 -2 -142 -7 -167 -20 -18 -10 -33 -23 -33 -30 0
-18 71 -17 96 2 25 19 141 20 180 1 16 -8 48 -18 72 -22 37 -6 42 -4 42 12 0
17 -42 67 -51 62 -2 -1 -65 -4 -139 -5z"/>
<path d="M39513 9262 c10 -10 17 -24 17 -30 0 -6 8 -13 18 -17 16 -5 52 -69
52 -91 0 -18 -35 -79 -60 -104 -48 -48 -109 -71 -215 -80 -171 -15 -249 -13
-276 9 -22 18 -23 21 -11 65 6 26 12 58 12 72 0 25 -2 26 -37 19 -21 -3 -42
-10 -46 -14 -17 -17 -35 -141 -33 -227 2 -94 19 -134 58 -134 9 0 20 -9 23
-20 14 -44 31 -17 37 60 3 31 7 35 44 45 23 5 49 17 59 25 10 8 45 16 84 18
73 5 91 13 71 36 -19 24 9 30 95 23 67 -6 78 -4 129 22 39 19 52 31 45 38 -8
8 -2 13 21 18 25 6 36 16 49 46 9 21 22 39 29 39 6 0 12 9 12 21 0 15 -5 19
-15 15 -10 -3 -17 3 -21 19 -3 13 -27 44 -52 68 -26 25 -53 52 -60 61 -7 9
-20 16 -29 16 -15 0 -15 -2 0 -18z"/>
<path d="M11170 9255 c-25 -10 -34 -19 -33 -33 2 -14 -5 -21 -26 -25 -32 -7
-68 -54 -53 -69 7 -7 17 -3 31 11 12 12 25 21 30 21 4 0 19 8 32 19 13 10 44
22 69 26 25 4 58 14 74 22 57 29 239 -7 274 -54 8 -11 12 -59 12 -149 0 -133
-4 -164 -22 -164 -5 0 -26 -16 -46 -36 -20 -20 -50 -43 -67 -51 -16 -9 -34
-22 -38 -29 -4 -8 -24 -14 -43 -14 -22 0 -40 -7 -51 -20 -15 -17 -30 -20 -113
-20 l-96 0 -47 45 c-26 24 -47 51 -47 58 0 7 -11 23 -25 35 -23 20 -25 28 -25
112 0 56 -4 90 -10 90 -14 0 -57 -49 -66 -73 -3 -11 -12 -16 -20 -13 -36 14
-49 -109 -14 -144 11 -11 20 -29 20 -41 0 -17 72 -96 130 -144 32 -25 105 -37
161 -26 30 5 81 13 114 17 33 3 67 12 75 19 8 7 32 15 54 18 21 3 43 13 50 22
16 22 91 32 112 14 15 -12 16 -32 11 -167 -5 -105 -11 -159 -21 -175 -18 -29
-31 -123 -17 -131 5 -4 12 -2 16 4 3 5 15 10 26 10 10 0 19 6 20 13 0 6 1 40
2 74 2 65 12 87 28 63 18 -29 26 10 32 144 2 72 10 146 17 164 9 24 11 104 7
304 -5 252 -7 273 -24 279 -36 13 -456 8 -493 -6z"/>
<path d="M13685 9264 c-11 -2 -50 -6 -87 -9 -44 -4 -74 -13 -89 -26 -30 -26
-65 -24 -101 6 -21 18 -37 24 -52 19 -29 -9 -28 -8 -15 -38 10 -21 9 -40 -6
-102 -16 -67 -16 -84 -5 -143 13 -65 15 -183 11 -456 -2 -77 -2 -227 -1 -332
3 -181 4 -193 22 -199 11 -3 24 -2 28 3 4 4 10 125 12 269 3 225 6 264 21 287
21 33 71 47 167 47 95 0 118 7 122 33 3 18 12 23 61 30 62 9 97 30 97 59 0 10
10 22 23 27 29 12 67 48 67 66 0 14 29 27 65 29 18 1 20 9 23 74 3 64 5 72 22
72 15 0 20 7 20 25 0 15 -6 25 -15 25 -8 0 -19 16 -25 40 -8 29 -16 40 -30 40
-10 0 -33 18 -50 40 -17 22 -42 43 -55 46 -14 3 -25 15 -27 27 -2 18 -14 24
-58 34 -54 11 -104 13 -145 7z m180 -84 c10 -11 22 -20 28 -20 5 0 25 -17 43
-37 33 -36 34 -38 34 -129 0 -76 -3 -96 -20 -117 -11 -14 -20 -34 -20 -44 0
-22 -71 -92 -112 -110 -16 -7 -28 -17 -28 -23 0 -5 -13 -10 -30 -10 -38 0
-132 -20 -146 -31 -6 -5 -45 -12 -87 -15 -72 -6 -76 -6 -101 19 -23 23 -26 35
-26 89 0 36 6 75 15 92 10 19 15 58 15 116 0 115 8 150 34 160 12 4 28 15 35
23 7 9 25 19 41 22 16 3 34 13 41 21 9 11 40 14 139 14 114 0 129 -2 145 -20z"/>
<path d="M28435 9260 c-27 -5 -75 -9 -106 -9 -42 -1 -60 -6 -74 -21 -23 -25
-67 -26 -89 -1 -23 25 -72 36 -91 21 -8 -7 -12 -17 -8 -22 3 -6 5 -288 4 -628
-1 -558 0 -619 15 -631 41 -34 54 51 58 379 2 174 5 205 20 220 12 13 42 18
129 22 121 6 141 12 132 39 -5 16 3 19 61 25 67 7 113 33 114 64 0 18 -38 14
-49 -6 -6 -12 -32 -21 -86 -29 -43 -7 -83 -17 -89 -22 -17 -13 -137 -22 -171
-13 -26 7 -31 14 -37 53 -4 24 -4 123 -1 220 l6 176 31 19 c17 10 36 23 41 30
6 6 22 14 37 18 15 3 33 13 42 21 11 12 41 15 129 15 124 0 147 4 147 26 0 28
-87 46 -165 34z"/>
<path d="M38331 9247 c-14 -6 -26 -18 -29 -24 -5 -18 43 -17 57 1 19 23 78 29
113 12 42 -22 55 -20 33 4 -15 16 -31 20 -84 20 -36 0 -77 -6 -90 -13z"/>
<path d="M5843 9234 c-11 -30 47 -45 88 -23 16 8 18 13 8 25 -16 20 -88 19
-96 -2z"/>
<path d="M14705 9240 c-4 -6 -1 -18 6 -27 10 -12 26 -14 68 -10 60 6 85 22 61
37 -20 13 -127 13 -135 0z"/>
<path d="M19990 9226 c0 -8 -12 -29 -27 -46 -24 -29 -27 -43 -34 -139 -3 -58
-14 -126 -23 -149 -13 -34 -16 -72 -14 -170 3 -124 4 -127 28 -139 22 -11 27
-10 43 8 14 18 17 44 18 173 0 92 6 180 15 226 8 41 18 114 21 163 5 76 3 87
-11 87 -9 0 -16 -6 -16 -14z"/>
<path d="M9006 9198 c-3 -18 -7 -118 -10 -222 -4 -122 -11 -211 -22 -252 -18
-73 -16 -129 5 -129 21 0 41 86 41 176 0 45 6 91 15 112 19 47 21 280 3 320
-17 36 -26 34 -32 -5z"/>
<path d="M24517 9213 c-10 -9 -8 -51 2 -57 5 -3 15 1 22 10 11 13 14 12 25
-13 l12 -28 1 37 c1 20 -3 40 -9 43 -5 3 -10 0 -10 -7 -1 -9 -5 -7 -14 5 -14
19 -19 20 -29 10z"/>
<path d="M34618 9190 c-7 -11 -18 -20 -25 -20 -16 0 -17 -36 -2 -46 7 -4 9
-55 4 -168 -7 -153 -6 -164 14 -204 12 -23 26 -42 31 -42 15 0 12 86 -4 99
-25 21 -27 70 -6 118 16 37 20 67 20 164 0 119 -7 140 -32 99z"/>
<path d="M14658 9189 c-16 -9 -26 -39 -13 -39 16 0 55 26 55 37 0 15 -18 16
-42 2z"/>
<path d="M31915 9190 c-4 -6 1 -32 10 -59 15 -46 15 -55 -5 -152 -15 -75 -25
-106 -40 -116 -11 -8 -20 -21 -20 -29 0 -8 -6 -14 -14 -14 -8 0 -21 -8 -28
-18 -7 -9 -26 -23 -41 -30 -15 -6 -30 -19 -33 -27 -4 -10 -20 -15 -50 -15 -33
0 -47 -5 -56 -20 -12 -18 -23 -20 -118 -20 l-105 1 -35 40 c-19 22 -45 51 -57
63 -13 13 -23 31 -23 40 0 9 -9 24 -20 33 -29 25 -27 92 5 140 32 50 61 79
108 109 20 13 37 28 37 33 0 5 11 12 25 15 44 11 27 26 -29 26 -54 0 -55 -1
-73 -40 -10 -22 -23 -40 -29 -40 -17 0 -64 -55 -64 -74 0 -12 -5 -16 -15 -12
-22 8 -50 -40 -46 -80 1 -18 -4 -43 -13 -56 -18 -28 -12 -39 32 -60 19 -8 39
-26 46 -39 6 -13 28 -35 49 -48 20 -13 37 -30 37 -36 0 -12 44 -47 72 -58 10
-4 15 -13 11 -25 -4 -16 2 -21 29 -26 47 -8 93 6 93 30 0 16 10 20 70 27 39 5
87 13 108 20 22 6 71 11 110 11 l72 1 -2 -35 c-15 -274 -15 -356 -1 -368 27
-22 40 11 48 120 12 164 6 749 -9 776 -13 24 -26 28 -36 12z"/>
<path d="M38004 9185 c-4 -9 -3 -91 1 -183 4 -92 8 -204 9 -250 1 -68 4 -85
19 -93 9 -6 17 -19 17 -31 0 -11 18 -38 40 -59 l40 -39 -3 248 c-2 236 -1 249
19 282 12 19 24 50 28 69 3 19 14 40 23 47 16 11 13 13 -22 20 -23 4 -57 2
-83 -5 -30 -8 -49 -8 -63 -1 -15 9 -21 7 -25 -5z"/>
<path d="M20747 9183 c-4 -3 -7 -13 -7 -22 1 -13 3 -13 11 2 11 19 8 33 -4 20z"/>
<path d="M28630 9182 c0 -5 7 -13 16 -16 10 -4 14 -1 12 6 -5 15 -28 23 -28
10z"/>
<path d="M20672 9106 c-29 -14 -34 -31 -24 -86 l8 -45 27 57 c39 82 37 98 -11
74z"/>
<path d="M10994 9085 c-14 -14 -22 -30 -18 -37 5 -7 11 -5 20 8 7 10 21 27 30
37 11 11 13 17 5 17 -6 0 -23 -11 -37 -25z"/>
<path d="M16500 9101 c0 -5 -8 -17 -17 -26 -13 -14 -16 -33 -13 -103 2 -48 3
-111 2 -140 -3 -57 19 -101 50 -102 9 0 20 -9 23 -21 12 -35 30 -14 35 41 5
52 5 53 48 65 23 7 49 18 56 24 8 7 49 15 92 19 74 7 79 9 77 30 -3 24 1 26
87 26 42 1 55 5 55 16 0 8 4 21 8 28 10 15 -24 17 -39 2 -11 -11 -208 -30
-311 -30 -76 0 -86 12 -81 103 3 58 2 62 -19 62 -11 0 -25 3 -29 8 -10 10 -24
9 -24 -2z"/>
<path d="M14541 9070 c-5 -16 -14 -30 -19 -30 -5 0 -22 -11 -37 -24 l-29 -25
14 -58 c7 -32 16 -71 19 -88 5 -21 13 -30 27 -30 17 0 19 9 22 85 2 60 8 90
19 102 8 10 19 36 23 58 6 34 5 40 -10 40 -11 0 -22 -12 -29 -30z"/>
<path d="M15010 9080 c0 -11 10 -30 22 -42 20 -20 21 -31 22 -184 0 -151 -1
-165 -20 -186 -23 -25 -38 -58 -26 -58 14 0 80 75 83 95 3 12 12 20 24 20 24
0 33 29 34 122 1 86 -16 172 -35 180 -8 3 -14 16 -14 29 0 13 -4 25 -10 25 -5
1 -14 2 -19 3 -5 0 -13 4 -17 9 -15 15 -44 7 -44 -13z"/>
<path d="M28727 9000 c-4 -80 -9 -104 -26 -126 -12 -15 -21 -33 -21 -41 0 -7
-16 -28 -35 -46 -19 -17 -35 -38 -35 -45 0 -21 59 15 65 41 7 25 49 49 72 40
9 -3 26 7 44 26 25 28 29 40 29 89 0 80 -8 102 -34 99 -15 -1 -22 4 -24 20 -2
12 -9 26 -16 32 -11 9 -14 -9 -19 -89z"/>
<path d="M26213 9024 c3 -31 11 -62 16 -67 7 -7 11 -78 11 -193 0 -174 5 -244
19 -244 3 0 16 19 29 43 19 36 21 48 12 72 -6 16 -10 101 -10 207 1 180 -4
213 -34 202 -8 -3 -16 4 -19 15 -3 12 -11 21 -17 21 -9 0 -11 -15 -7 -56z"/>
<path d="M10280 9002 c0 -37 7 -99 15 -137 9 -42 15 -125 15 -207 0 -127 2
-138 18 -138 10 0 28 13 40 30 18 24 22 43 22 110 0 49 -5 92 -14 108 -7 15
-16 70 -19 122 -7 112 -14 140 -34 140 -8 0 -17 9 -20 20 -11 42 -23 17 -23
-48z"/>
<path d="M4312 9038 c-8 -8 -12 -54 -11 -147 1 -177 9 -246 29 -246 12 0 16
18 21 80 3 44 10 97 14 118 5 23 4 37 -3 37 -5 0 -11 33 -14 75 -4 78 -15 104
-36 83z"/>
<path d="M30605 9041 c-14 -23 11 -385 26 -375 5 3 12 -8 15 -25 8 -37 19 -40
28 -8 6 22 6 22 22 2 23 -31 34 -3 34 92 0 71 -3 84 -20 96 -24 17 -40 66 -40
124 0 32 -7 49 -29 73 -19 21 -31 28 -36 21z"/>
<path d="M5618 9010 c-23 -18 -25 -25 -23 -87 1 -37 -1 -82 -5 -100 -6 -23 -4
-36 6 -44 8 -6 14 -19 14 -29 0 -24 10 -31 30 -20 15 8 16 25 14 151 -2 78 -5
144 -7 146 -2 2 -15 -6 -29 -17z"/>
<path d="M6130 9007 c0 -13 9 -36 20 -50 17 -21 20 -40 20 -112 0 -72 -3 -91
-20 -112 -21 -27 -28 -93 -9 -93 16 0 66 54 71 76 2 11 11 18 20 16 18 -3 28
35 28 107 0 48 -7 65 -27 72 -7 2 -27 28 -45 58 -37 62 -58 75 -58 38z"/>
<path d="M26852 9005 c-16 -16 -22 -30 -18 -43 4 -11 2 -41 -5 -66 -9 -37 -15
-45 -33 -43 -19 2 -21 -4 -24 -52 -2 -32 2 -58 9 -65 8 -8 13 -8 16 2 6 14 59
16 68 2 3 -5 13 -10 21 -10 21 0 17 38 -6 52 -16 10 -20 24 -20 71 0 40 4 59
14 63 25 10 32 117 8 113 -4 -1 -18 -12 -30 -24z"/>
<path d="M24680 9011 c0 -6 9 -11 20 -11 14 0 19 -6 17 -22 -1 -15 5 -24 23
-29 37 -10 93 -10 110 1 24 15 -3 33 -68 47 -31 6 -67 14 -79 18 -15 5 -23 3
-23 -4z"/>
<path d="M6662 8998 c-17 -17 -16 -149 1 -173 26 -35 37 -7 37 91 0 95 -8 112
-38 82z"/>
<path d="M20590 8925 c-5 -14 -14 -25 -20 -25 -6 0 -10 -25 -10 -57 1 -62 20
-98 55 -104 11 -2 22 -13 25 -24 8 -29 42 -65 62 -65 12 0 18 -8 18 -24 0 -21
7 -26 50 -35 64 -14 140 -14 140 -1 0 6 -17 10 -38 10 -26 0 -45 7 -57 20 -10
11 -22 20 -28 20 -15 0 -67 48 -109 100 -36 45 -38 52 -38 117 0 86 -28 125
-50 68z"/>
<path d="M24865 8930 c-8 -13 15 -24 27 -12 6 6 4 11 -6 15 -8 3 -18 2 -21 -3z"/>
<path d="M14550 8751 c0 -54 3 -65 27 -87 46 -42 69 -15 28 34 -14 17 -25 42
-25 60 0 16 -7 35 -15 42 -13 11 -15 4 -15 -49z"/>
<path d="M25030 8746 c0 -18 -2 -46 -5 -62 -7 -37 9 -64 27 -46 6 6 22 12 34
12 25 0 34 17 34 63 0 44 -14 64 -33 49 -11 -10 -17 -9 -27 3 -20 24 -30 18
-30 -19z"/>
<path d="M5660 8716 c0 -35 122 -156 157 -156 20 0 23 -3 14 -14 -22 -26 12
-37 110 -34 90 3 94 4 93 26 0 15 5 22 17 22 23 0 69 42 69 64 0 22 -17 20
-30 -4 -7 -13 -21 -20 -40 -20 -17 0 -39 -9 -50 -20 -16 -16 -33 -20 -83 -20
-50 0 -66 4 -80 20 -9 11 -25 20 -35 20 -25 0 -89 63 -107 106 -16 40 -35 45
-35 10z"/>
<path d="M26910 8697 c0 -17 20 -37 37 -37 10 0 10 6 -3 25 -18 27 -34 33 -34
12z"/>
<path d="M8492 8668 c6 -18 28 -21 28 -4 0 9 -7 16 -16 16 -9 0 -14 -5 -12
-12z"/>
<path d="M27655 8670 c-3 -5 1 -10 9 -10 9 0 16 5 16 10 0 6 -4 10 -9 10 -6 0
-13 -4 -16 -10z"/>
<path d="M36855 8670 c3 -5 8 -10 11 -10 2 0 4 5 4 10 0 6 -5 10 -11 10 -5 0
-7 -4 -4 -10z"/>
<path d="M37125 8669 c-4 -6 -4 -13 -1 -16 8 -8 36 5 36 17 0 13 -27 13 -35
-1z"/>
<path d="M7336 8634 c-17 -17 -20 -27 -10 -37 8 -8 64 31 64 44 0 15 -37 10
-54 -7z"/>
<path d="M14630 8630 c0 -26 39 -70 61 -70 10 0 19 -9 21 -22 4 -28 52 -41
136 -36 63 4 86 17 75 45 -3 8 2 13 15 13 11 0 30 9 43 20 l24 19 -42 1 c-30
0 -49 -6 -63 -20 -15 -15 -33 -20 -76 -20 -41 0 -63 5 -81 20 -14 11 -32 20
-39 20 -8 0 -24 11 -36 25 -26 30 -38 32 -38 5z"/>
<path d="M22658 8639 c-21 -12 -24 -39 -5 -39 7 0 20 -9 30 -20 9 -11 23 -20
31 -20 22 0 37 -25 50 -82 l12 -53 24 45 c26 49 36 159 16 172 -16 11 -138 9
-158 -3z"/>
<path d="M2592 8628 c12 -36 109 -46 145 -16 26 22 11 28 -68 28 -60 0 -80 -3
-77 -12z"/>
<path d="M26980 8631 c0 -14 30 -41 55 -51 48 -18 175 15 175 45 0 22 -43 18
-63 -5 -11 -13 -29 -20 -55 -20 -25 0 -43 7 -55 20 -17 20 -57 28 -57 11z"/>
<path d="M34722 8628 c8 -24 53 -38 120 -38 76 0 118 12 118 35 0 13 -19 15
-121 15 -92 0 -120 -3 -117 -12z"/>
<path d="M36906 8631 c-12 -18 28 -35 90 -39 89 -6 134 4 134 28 0 19 -8 20
-109 20 -61 0 -112 -4 -115 -9z"/>
<path d="M39760 8596 c0 -20 5 -36 10 -36 6 0 10 11 10 25 0 14 0 28 1 32 0 4
-4 9 -10 11 -7 2 -11 -11 -11 -32z"/>
<path d="M15860 8611 c0 -15 32 -51 46 -51 8 0 14 -9 14 -19 0 -21 19 -31 57
-31 34 0 25 23 -15 35 -19 5 -32 16 -32 25 0 9 -16 23 -35 32 -19 8 -35 13
-35 9z"/>
<path d="M19250 8594 c0 -9 14 -21 30 -27 17 -7 30 -19 30 -29 0 -22 31 -31
64 -19 35 14 33 28 -5 36 -17 4 -47 18 -66 31 -42 28 -53 30 -53 8z"/>
<path d="M36085 8580 c21 -23 45 -26 45 -6 0 7 -10 16 -22 20 -38 10 -42 7
-23 -14z"/>
<path d="M7123 8567 c-118 -7 -163 -13 -163 -22 0 -20 25 -25 118 -25 86 0
222 32 222 52 0 4 -3 7 -7 6 -5 -1 -81 -6 -170 -11z"/>
<path d="M24391 8540 c-8 -4 -10 -13 -7 -19 9 -13 43 -15 51 -2 8 14 -28 31
-44 21z"/>
<path d="M36130 8535 c0 -16 1 -17 43 -19 34 -2 35 11 1 24 -35 14 -44 13 -44
-5z"/>
<path d="M16765 8490 c3 -5 13 -10 21 -10 11 0 13 -6 9 -19 -9 -30 23 -41 117
-41 83 0 137 18 123 41 -4 5 -50 9 -103 9 -67 0 -106 5 -126 15 -33 17 -50 19
-41 5z"/>
<path d="M24870 8490 c0 -5 5 -10 10 -10 6 0 10 5 10 10 0 6 -4 10 -10 10 -5
0 -10 -4 -10 -10z"/>
<path d="M24637 8483 c10 -3 10 -9 0 -24 -10 -16 -9 -21 3 -29 23 -15 104 -12
126 4 25 19 13 30 -48 45 -46 11 -105 14 -81 4z"/>
<path d="M39264 8458 c-16 -26 29 -39 123 -36 94 3 135 18 103 38 -22 14 -217
13 -226 -2z"/>
<path d="M31882 8250 c0 -14 2 -19 5 -12 2 6 2 18 0 25 -3 6 -5 1 -5 -13z"/>
<path d="M11497 8183 c-4 -3 -7 -16 -7 -27 1 -21 1 -21 15 -2 8 11 15 23 15
28 0 10 -14 11 -23 1z"/>
<path d="M31880 8174 c0 -8 5 -12 10 -9 6 4 8 11 5 16 -9 14 -15 11 -15 -7z"/>
<path d="M10810 8150 c0 -5 5 -10 11 -10 5 0 7 5 4 10 -3 6 -8 10 -11 10 -2 0
-4 -4 -4 -10z"/>
<path d="M10894 8075 c18 -19 40 -35 49 -35 10 0 17 -8 17 -20 0 -36 36 -44
195 -44 130 -1 155 2 179 17 42 28 20 41 -56 33 -118 -13 -265 -1 -295 25 -10
9 -31 19 -47 23 -15 4 -35 14 -43 21 -30 31 -29 13 1 -20z"/>
<path d="M31738 8053 c7 -3 16 -2 19 1 4 3 -2 6 -13 5 -11 0 -14 -3 -6 -6z"/>
<path d="M31263 8030 c-11 -16 -9 -21 9 -35 18 -12 58 -15 221 -15 205 0 237
5 237 40 0 18 -6 19 -87 13 -52 -3 -94 -11 -104 -19 -20 -18 -30 -18 -65 1
-18 9 -57 15 -101 15 -39 0 -75 5 -78 10 -9 15 -19 12 -32 -10z"/>
</g>
</svg>
